<?xml version="1.0" standalone="no"?><!DOCTYPE svg PUBLIC "-//W3C//DTD SVG 1.1//EN" "http://www.w3.org/Graphics/SVG/1.1/DTD/svg11.dtd"><svg t="1787733425168" class="icon" viewBox="0 0 1024 1024" version="1.1" xmlns="http://www.w3.org/2000/svg" p-id="14385" xmlns:xlink="http://www.w3.org/1999/xlink" width="200" height="200"><path d="M981.185784 493.206116c10.708887 7.167701 17.876588 21.417774 21.460439 35.667848a39.166368 39.166368 0 0 1-21.460439 35.582517L529.919253 806.707721c-3.583851 3.541186-10.751552 3.541186-17.919253 3.541185-7.167701 0-10.708887 0-17.919253-3.541185L46.440732 564.456481a39.166368 39.166368 0 0 1-21.503104-35.582517c0-14.250073 7.167701-28.542811 21.460439-35.625183l93.137452-46.334069h7.167702l64.466647 35.625182c3.583851 0 3.583851 3.583851 3.583851 7.125037 0 3.583851 0 7.125036-3.583851 7.125036l-64.423982 35.625182L512 724.748469l368.923295-195.874505-60.925462-32.083997s-3.583851-3.541186-3.58385-7.125036c0-3.541186 0-7.125036 3.58385-7.125037l64.466648-35.625182h7.167701l89.553602 46.334069zM42.814216 343.708345C32.105329 336.540644 21.353777 322.290571 24.980292 307.997833c0-14.207408 7.125036-28.457481 21.46044-35.582517l451.26653-224.417316a32.72397 32.72397 0 0 1 35.838507 0l444.056164 224.417316a39.081038 39.081038 0 0 1 21.503104 35.582517 39.123703 39.123703 0 0 1-21.460439 35.667848L526.335403 585.788925c-3.583851 3.583851-10.708887 3.583851-17.919254 3.583851-7.125036 0-10.666222 0-17.919253-3.583851L42.899546 343.665681z m934.787717 359.707679a39.123703 39.123703 0 0 1 21.460439 35.625183c0 10.666222-7.167701 24.95896-17.919253 32.041331 0 3.583851-3.583851 3.583851-3.583851 3.583851l-451.223865 245.74976c-3.583851 3.583851-10.751552 3.583851-17.919254 3.583851-7.125036 0-10.751552 0-17.919253-3.541186L42.856881 778.16491a39.166368 39.166368 0 0 1-21.503104-35.582518c0-14.250073 7.167701-28.542811 21.460439-35.625182l89.553602-39.166368h7.167701l64.466648 35.582517c3.583851 0 3.583851 3.583851 3.58385 7.167702 0 3.541186 0 7.082372-3.58385 7.082371l-57.298946 24.95896 358.129078 192.33332 368.88063-195.91717-53.715096-28.500146s-3.583851-3.541186-3.58385-7.125037c0-3.541186 0-7.125036 3.58385-7.125036l64.466648-35.625182h7.167701l85.927086 42.750218z" fill="#ffffff" p-id="14386"></path></svg>